<?xml version="1.0" encoding="UTF-8" standalone="no"?>
<!DOCTYPE svg PUBLIC "-//W3C//DTD SVG 1.1//EN" "http://www.w3.org/Graphics/SVG/1.1/DTD/svg11.dtd">
<svg version="1.1" xmlns="http://www.w3.org/2000/svg" xmlns:xlink="http://www.w3.org/1999/xlink" preserveAspectRatio="xMidYMid meet" viewBox="-5 0 640 640"><defs><path d="M177.02 333.52C183.85 327.7 238.47 281.21 245.28 275.39C249.72 271.63 256.38 272.16 260.17 276.58C263.93 281.02 263.4 287.68 258.96 291.47C255.05 294.8 235.44 311.49 200.14 341.56C235.44 371.62 255.05 388.31 258.96 391.67C263.4 395.43 263.93 402.1 260.17 406.54C258.07 408.99 255.1 410.24 252.11 410.24C249.72 410.24 247.28 409.4 245.28 407.73C238.47 401.93 183.85 355.4 177.02 349.59C174.66 347.59 173.31 344.65 173.31 341.56C173.31 338.47 174.68 335.55 177.02 333.52Z" id="abDKnoYyt"></path><path d="M177.02 333.52C183.85 327.7 238.47 281.21 245.28 275.39C249.72 271.63 256.38 272.16 260.17 276.58C263.93 281.02 263.4 287.68 258.96 291.47C255.05 294.8 235.44 311.49 200.14 341.56C235.44 371.62 255.05 388.31 258.96 391.67C263.4 395.43 263.93 402.1 260.17 406.54C258.07 408.99 255.1 410.24 252.11 410.24C249.72 410.24 247.28 409.4 245.28 407.73C238.47 401.93 183.85 355.4 177.02 349.59C174.66 347.59 173.31 344.65 173.31 341.56C173.31 338.47 174.68 335.55 177.02 333.52Z" id="l36DMFZjy"></path><path d="M177.02 333.52C183.85 327.7 238.47 281.21 245.28 275.39C249.72 271.63 256.38 272.16 260.17 276.58C263.93 281.02 263.4 287.68 258.96 291.47C255.05 294.8 235.44 311.49 200.14 341.56C235.44 371.62 255.05 388.31 258.96 391.67C263.4 395.43 263.93 402.1 260.17 406.54C258.07 408.99 255.1 410.24 252.11 410.24C249.72 410.24 247.28 409.4 245.28 407.73C238.47 401.93 183.85 355.4 177.02 349.59C174.66 347.59 173.31 344.65 173.31 341.56C173.31 338.47 174.68 335.55 177.02 333.52Z" id="c1OyaVLJNs"></path><path d="M177.02 333.52C183.85 327.7 238.47 281.21 245.28 275.39C249.72 271.63 256.38 272.16 260.17 276.58C263.93 281.02 263.4 287.68 258.96 291.47C255.05 294.8 235.44 311.49 200.14 341.56C235.44 371.62 255.05 388.31 258.96 391.67C263.4 395.43 263.93 402.1 260.17 406.54C258.07 408.99 255.1 410.24 252.11 410.24C249.72 410.24 247.28 409.4 245.28 407.73C238.47 401.93 183.85 355.4 177.02 349.59C174.66 347.59 173.31 344.65 173.31 341.56C173.31 338.47 174.68 335.55 177.02 333.52Z" id="b5kPti8ka"></path><path d="M380.03 291.47C375.61 287.68 375.07 281.02 378.85 276.58C382.61 272.16 389.27 271.63 393.71 275.39C400.54 281.21 455.15 327.7 461.99 333.52C464.33 335.55 465.68 338.47 465.68 341.56C465.68 344.65 464.33 347.59 461.99 349.59C455.15 355.4 400.54 401.93 393.71 407.73C391.73 409.4 389.3 410.24 386.88 410.24C383.89 410.24 380.92 408.99 378.85 406.54C375.07 402.1 375.61 395.43 380.03 391.67C383.96 388.31 403.55 371.62 438.85 341.56C403.55 311.49 383.96 294.8 380.03 291.47Z" id="d5B78xHsOT"></path><path d="M380.03 291.47C375.61 287.68 375.07 281.02 378.85 276.58C382.61 272.16 389.27 271.63 393.71 275.39C400.54 281.21 455.15 327.7 461.99 333.52C464.33 335.55 465.68 338.47 465.68 341.56C465.68 344.65 464.33 347.59 461.99 349.59C455.15 355.4 400.54 401.93 393.71 407.73C391.73 409.4 389.3 410.24 386.88 410.24C383.89 410.24 380.92 408.99 378.85 406.54C375.07 402.1 375.61 395.43 380.03 391.67C383.96 388.31 403.55 371.62 438.85 341.56C403.55 311.49 383.96 294.8 380.03 291.47Z" id="akkvuJlkq"></path><path d="M380.03 291.47C375.61 287.68 375.07 281.02 378.85 276.58C382.61 272.16 389.27 271.63 393.71 275.39C400.54 281.21 455.15 327.7 461.99 333.52C464.33 335.55 465.68 338.47 465.68 341.56C465.68 344.65 464.33 347.59 461.99 349.59C455.15 355.4 400.54 401.93 393.71 407.73C391.73 409.4 389.3 410.24 386.88 410.24C383.89 410.24 380.92 408.99 378.85 406.54C375.07 402.1 375.61 395.43 380.03 391.67C383.96 388.31 403.55 371.62 438.85 341.56C403.55 311.49 383.96 294.8 380.03 291.47Z" id="c4gA4xWHB"></path><path d="M380.03 291.47C375.61 287.68 375.07 281.02 378.85 276.58C382.61 272.16 389.27 271.63 393.71 275.39C400.54 281.21 455.15 327.7 461.99 333.52C464.33 335.55 465.68 338.47 465.68 341.56C465.68 344.65 464.33 347.59 461.99 349.59C455.15 355.4 400.54 401.93 393.71 407.73C391.73 409.4 389.3 410.24 386.88 410.24C383.89 410.24 380.92 408.99 378.85 406.54C375.07 402.1 375.61 395.43 380.03 391.67C383.96 388.31 403.55 371.62 438.85 341.56C403.55 311.49 383.96 294.8 380.03 291.47Z" id="c586SLQSA"></path><path d="M340.03 230.98C345.75 232.16 349.39 237.76 348.18 243.47C343.94 263.67 309.89 425.28 305.65 445.47C304.58 450.44 300.22 453.85 295.32 453.85C294.59 453.85 293.87 453.78 293.14 453.61C287.46 452.42 283.79 446.82 285 441.1C289.24 420.91 323.28 259.3 327.53 239.11C328.73 233.42 334.33 229.77 340.03 230.98Z" id="a1d5kowtvo"></path><path d="M340.03 230.98C345.75 232.16 349.39 237.76 348.18 243.47C343.94 263.67 309.89 425.28 305.65 445.47C304.58 450.44 300.22 453.85 295.32 453.85C294.59 453.85 293.87 453.78 293.14 453.61C287.46 452.42 283.79 446.82 285 441.1C289.24 420.91 323.28 259.3 327.53 239.11C328.73 233.42 334.33 229.77 340.03 230.98Z" id="d3JtCbhYBa"></path><path d="M340.03 230.98C345.75 232.16 349.39 237.76 348.18 243.47C343.94 263.67 309.89 425.28 305.65 445.47C304.58 450.44 300.22 453.85 295.32 453.85C294.59 453.85 293.87 453.78 293.14 453.61C287.46 452.42 283.79 446.82 285 441.1C289.24 420.91 323.28 259.3 327.53 239.11C328.73 233.42 334.33 229.77 340.03 230.98Z" id="bbkLtV4KYd"></path><path d="M340.03 230.98C345.75 232.16 349.39 237.76 348.18 243.47C343.94 263.67 309.89 425.28 305.65 445.47C304.58 450.44 300.22 453.85 295.32 453.85C294.59 453.85 293.87 453.78 293.14 453.61C287.46 452.42 283.79 446.82 285 441.1C289.24 420.91 323.28 259.3 327.53 239.11C328.73 233.42 334.33 229.77 340.03 230.98Z" id="c13jupy8Ze"></path><path d="M70.83 0.1C120.57 0.1 518.45 0.1 568.18 0.1C607.22 0.1 639 31.9 639 70.94C639 113.16 639 450.86 639 493.05C639 532.12 607.22 563.9 568.18 563.9C468.7 563.9 120.57 563.9 70.83 563.9C31.77 563.9 0 532.12 0 493.05C0 450.86 0 113.16 0 70.94C0 31.9 31.77 0.1 70.83 0.1ZM70.83 542.81C120.57 542.81 518.45 542.81 568.18 542.81C595.59 542.81 617.91 520.48 617.91 493.05C617.91 450.86 617.91 113.16 617.91 70.94C617.91 43.53 595.59 21.2 568.18 21.2C468.7 21.2 170.29 21.2 70.83 21.2C43.4 21.2 21.1 43.53 21.1 70.94C21.1 113.16 21.1 450.86 21.1 493.05C21.1 520.48 43.4 542.81 70.83 542.81Z" id="c11NHprHiw"></path><path d="M70.83 0.1C120.57 0.1 518.45 0.1 568.18 0.1C607.22 0.1 639 31.9 639 70.94C639 113.16 639 450.86 639 493.05C639 532.12 607.22 563.9 568.18 563.9C468.7 563.9 120.57 563.9 70.83 563.9C31.77 563.9 0 532.12 0 493.05C0 450.86 0 113.16 0 70.94C0 31.9 31.77 0.1 70.83 0.1ZM70.83 542.81C120.57 542.81 518.45 542.81 568.18 542.81C595.59 542.81 617.91 520.48 617.91 493.05C617.91 450.86 617.91 113.16 617.91 70.94C617.91 43.53 595.59 21.2 568.18 21.2C468.7 21.2 170.29 21.2 70.83 21.2C43.4 21.2 21.1 43.53 21.1 70.94C21.1 113.16 21.1 450.86 21.1 493.05C21.1 520.48 43.4 542.81 70.83 542.81Z" id="d1k47WxpZl"></path><path d="M70.83 0.1C120.57 0.1 518.45 0.1 568.18 0.1C607.22 0.1 639 31.9 639 70.94C639 113.16 639 450.86 639 493.05C639 532.12 607.22 563.9 568.18 563.9C468.7 563.9 120.57 563.9 70.83 563.9C31.77 563.9 0 532.12 0 493.05C0 450.86 0 113.16 0 70.94C0 31.9 31.77 0.1 70.83 0.1ZM70.83 542.81C120.57 542.81 518.45 542.81 568.18 542.81C595.59 542.81 617.91 520.48 617.91 493.05C617.91 450.86 617.91 113.16 617.91 70.94C617.91 43.53 595.59 21.2 568.18 21.2C468.7 21.2 170.29 21.2 70.83 21.2C43.4 21.2 21.1 43.53 21.1 70.94C21.1 113.16 21.1 450.86 21.1 493.05C21.1 520.48 43.4 542.81 70.83 542.81Z" id="a2gvTnhVNX"></path><path d="M70.83 0.1C120.57 0.1 518.45 0.1 568.18 0.1C607.22 0.1 639 31.9 639 70.94C639 113.16 639 450.86 639 493.05C639 532.12 607.22 563.9 568.18 563.9C468.7 563.9 120.57 563.9 70.83 563.9C31.77 563.9 0 532.12 0 493.05C0 450.86 0 113.16 0 70.94C0 31.9 31.77 0.1 70.83 0.1ZM70.83 542.81C120.57 542.81 518.45 542.81 568.18 542.81C595.59 542.81 617.91 520.48 617.91 493.05C617.91 450.86 617.91 113.16 617.91 70.94C617.91 43.53 595.59 21.2 568.18 21.2C468.7 21.2 170.29 21.2 70.83 21.2C43.4 21.2 21.1 43.53 21.1 70.94C21.1 113.16 21.1 450.86 21.1 493.05C21.1 520.48 43.4 542.81 70.83 542.81Z" id="g1fTIVhaml"></path><path d="M180.23 118.57C161.84 118.57 146.86 103.58 146.86 85.17C146.86 66.76 161.84 51.8 180.23 51.8C198.66 51.8 213.62 66.76 213.62 85.17C213.62 103.58 198.66 118.57 180.23 118.57ZM180.23 72.9C173.48 72.9 167.95 78.39 167.95 85.17C167.95 91.95 173.48 97.46 180.23 97.46C187.03 97.46 192.53 91.95 192.53 85.17C192.53 78.39 187.03 72.9 180.23 72.9Z" id="aIsGvO15I"></path><path d="M180.23 118.57C161.84 118.57 146.86 103.58 146.86 85.17C146.86 66.76 161.84 51.8 180.23 51.8C198.66 51.8 213.62 66.76 213.62 85.17C213.62 103.58 198.66 118.57 180.23 118.57ZM180.23 72.9C173.48 72.9 167.95 78.39 167.95 85.17C167.95 91.95 173.48 97.46 180.23 97.46C187.03 97.46 192.53 91.95 192.53 85.17C192.53 78.39 187.03 72.9 180.23 72.9Z" id="g3LPEPki0d"></path><path d="M180.23 118.57C161.84 118.57 146.86 103.58 146.86 85.17C146.86 66.76 161.84 51.8 180.23 51.8C198.66 51.8 213.62 66.76 213.62 85.17C213.62 103.58 198.66 118.57 180.23 118.57ZM180.23 72.9C173.48 72.9 167.95 78.39 167.95 85.17C167.95 91.95 173.48 97.46 180.23 97.46C187.03 97.46 192.53 91.95 192.53 85.17C192.53 78.39 187.03 72.9 180.23 72.9Z" id="aQjdpTIEp"></path><path d="M180.23 118.57C161.84 118.57 146.86 103.58 146.86 85.17C146.86 66.76 161.84 51.8 180.23 51.8C198.66 51.8 213.62 66.76 213.62 85.17C213.62 103.58 198.66 118.57 180.23 118.57ZM180.23 72.9C173.48 72.9 167.95 78.39 167.95 85.17C167.95 91.95 173.48 97.46 180.23 97.46C187.03 97.46 192.53 91.95 192.53 85.17C192.53 78.39 187.03 72.9 180.23 72.9Z" id="dKGYlXD0f"></path><path d="M75.25 120.64C56.84 120.64 41.88 105.68 41.88 87.27C41.88 68.86 56.84 53.88 75.25 53.88C93.66 53.88 108.64 68.86 108.64 87.27C108.64 105.68 93.66 120.64 75.25 120.64ZM75.25 74.96C68.5 74.96 62.97 80.49 62.97 87.27C62.97 94.05 68.5 99.56 75.25 99.56C82.03 99.56 87.53 94.05 87.53 87.27C87.53 80.49 82.03 74.96 75.25 74.96Z" id="aJEjR2m0y"></path><path d="M75.25 120.64C56.84 120.64 41.88 105.68 41.88 87.27C41.88 68.86 56.84 53.88 75.25 53.88C93.66 53.88 108.64 68.86 108.64 87.27C108.64 105.68 93.66 120.64 75.25 120.64ZM75.25 74.96C68.5 74.96 62.97 80.49 62.97 87.27C62.97 94.05 68.5 99.56 75.25 99.56C82.03 99.56 87.53 94.05 87.53 87.27C87.53 80.49 82.03 74.96 75.25 74.96Z" id="au5iTMNZ8"></path><path d="M75.25 120.64C56.84 120.64 41.88 105.68 41.88 87.27C41.88 68.86 56.84 53.88 75.25 53.88C93.66 53.88 108.64 68.86 108.64 87.27C108.64 105.68 93.66 120.64 75.25 120.64ZM75.25 74.96C68.5 74.96 62.97 80.49 62.97 87.27C62.97 94.05 68.5 99.56 75.25 99.56C82.03 99.56 87.53 94.05 87.53 87.27C87.53 80.49 82.03 74.96 75.25 74.96Z" id="c4faU9h7Dg"></path><path d="M75.25 120.64C56.84 120.64 41.88 105.68 41.88 87.27C41.88 68.86 56.84 53.88 75.25 53.88C93.66 53.88 108.64 68.86 108.64 87.27C108.64 105.68 93.66 120.64 75.25 120.64ZM75.25 74.96C68.5 74.96 62.97 80.49 62.97 87.27C62.97 94.05 68.5 99.56 75.25 99.56C82.03 99.56 87.53 94.05 87.53 87.27C87.53 80.49 82.03 74.96 75.25 74.96Z" id="g184UYLDOk"></path><path d="M282.82 118.88C264.41 118.88 249.45 103.89 249.45 85.48C249.45 67.08 264.41 52.11 282.82 52.11C301.23 52.11 316.22 67.08 316.22 85.48C316.22 103.89 301.23 118.88 282.82 118.88ZM282.82 73.21C276.06 73.21 270.54 78.7 270.54 85.48C270.54 92.27 276.06 97.79 282.82 97.79C289.61 97.79 295.1 92.27 295.1 85.48C295.1 78.7 289.61 73.21 282.82 73.21Z" id="bhsgybRK"></path><path d="M282.82 118.88C264.41 118.88 249.45 103.89 249.45 85.48C249.45 67.08 264.41 52.11 282.82 52.11C301.23 52.11 316.22 67.08 316.22 85.48C316.22 103.89 301.23 118.88 282.82 118.88ZM282.82 73.21C276.06 73.21 270.54 78.7 270.54 85.48C270.54 92.27 276.06 97.79 282.82 97.79C289.61 97.79 295.1 92.27 295.1 85.48C295.1 78.7 289.61 73.21 282.82 73.21Z" id="b48hq9pEzt"></path><path d="M282.82 118.88C264.41 118.88 249.45 103.89 249.45 85.48C249.45 67.08 264.41 52.11 282.82 52.11C301.23 52.11 316.22 67.08 316.22 85.48C316.22 103.89 301.23 118.88 282.82 118.88ZM282.82 73.21C276.06 73.21 270.54 78.7 270.54 85.48C270.54 92.27 276.06 97.79 282.82 97.79C289.61 97.79 295.1 92.27 295.1 85.48C295.1 78.7 289.61 73.21 282.82 73.21Z" id="b6TY2GtlS"></path><path d="M282.82 118.88C264.41 118.88 249.45 103.89 249.45 85.48C249.45 67.08 264.41 52.11 282.82 52.11C301.23 52.11 316.22 67.08 316.22 85.48C316.22 103.89 301.23 118.88 282.82 118.88ZM282.82 73.21C276.06 73.21 270.54 78.7 270.54 85.48C270.54 92.27 276.06 97.79 282.82 97.79C289.61 97.79 295.1 92.27 295.1 85.48C295.1 78.7 289.61 73.21 282.82 73.21Z" id="dgOxS0T7Z"></path><path d="M617.96 162.4L21.03 162.4L21.03 141.32L617.96 141.32L617.96 162.4Z" id="b9MuBPnyA"></path><path d="M617.96 162.4L21.03 162.4L21.03 141.32L617.96 141.32L617.96 162.4Z" id="er1EKilG9"></path></defs><g><g><g><use xlink:href="#abDKnoYyt" opacity="1" fill="#f8f8f8" fill-opacity="1"></use><g><use xlink:href="#abDKnoYyt" opacity="1" fill-opacity="0" stroke="#000000" stroke-width="1" stroke-opacity="0"></use></g></g><g><use xlink:href="#l36DMFZjy" opacity="1" fill="#f8f8f8" fill-opacity="1"></use><g><use xlink:href="#l36DMFZjy" opacity="1" fill-opacity="0" stroke="#000000" stroke-width="1" stroke-opacity="0"></use></g></g><g><use xlink:href="#c1OyaVLJNs" opacity="1" fill="#e03535" fill-opacity="1"></use><g><use xlink:href="#c1OyaVLJNs" opacity="1" fill-opacity="0" stroke="#000000" stroke-width="1" stroke-opacity="0"></use></g></g><g><use xlink:href="#b5kPti8ka" opacity="1" fill="#000000" fill-opacity="0"></use><g><use xlink:href="#b5kPti8ka" opacity="1" fill-opacity="0" stroke="#000000" stroke-width="1" stroke-opacity="0"></use></g></g><g><use xlink:href="#d5B78xHsOT" opacity="1" fill="#f8f8f8" fill-opacity="1"></use><g><use xlink:href="#d5B78xHsOT" opacity="1" fill-opacity="0" stroke="#000000" stroke-width="1" stroke-opacity="0"></use></g></g><g><use xlink:href="#akkvuJlkq" opacity="1" fill="#f8f8f8" fill-opacity="1"></use><g><use xlink:href="#akkvuJlkq" opacity="1" fill-opacity="0" stroke="#000000" stroke-width="1" stroke-opacity="0"></use></g></g><g><use xlink:href="#c4gA4xWHB" opacity="1" fill="#e03535" fill-opacity="1"></use><g><use xlink:href="#c4gA4xWHB" opacity="1" fill-opacity="0" stroke="#000000" stroke-width="1" stroke-opacity="0"></use></g></g><g><use xlink:href="#c586SLQSA" opacity="1" fill="#000000" fill-opacity="0"></use><g><use xlink:href="#c586SLQSA" opacity="1" fill-opacity="0" stroke="#000000" stroke-width="1" stroke-opacity="0"></use></g></g><g><use xlink:href="#a1d5kowtvo" opacity="1" fill="#f8f8f8" fill-opacity="1"></use><g><use xlink:href="#a1d5kowtvo" opacity="1" fill-opacity="0" stroke="#000000" stroke-width="1" stroke-opacity="0"></use></g></g><g><use xlink:href="#d3JtCbhYBa" opacity="1" fill="#f8f8f8" fill-opacity="1"></use><g><use xlink:href="#d3JtCbhYBa" opacity="1" fill-opacity="0" stroke="#000000" stroke-width="1" stroke-opacity="0"></use></g></g><g><use xlink:href="#bbkLtV4KYd" opacity="1" fill="#f8f8f8" fill-opacity="1"></use><g><use xlink:href="#bbkLtV4KYd" opacity="1" fill-opacity="0" stroke="#000000" stroke-width="1" stroke-opacity="0"></use></g></g><g><use xlink:href="#c13jupy8Ze" opacity="1" fill="#181818" fill-opacity="0.68"></use><g><use xlink:href="#c13jupy8Ze" opacity="1" fill-opacity="0" stroke="#000000" stroke-width="1" stroke-opacity="0"></use></g></g><g><use xlink:href="#c11NHprHiw" opacity="1" fill="#f8f8f8" fill-opacity="1"></use><g><use xlink:href="#c11NHprHiw" opacity="1" fill-opacity="0" stroke="#000000" stroke-width="1" stroke-opacity="0"></use></g></g><g><use xlink:href="#d1k47WxpZl" opacity="1" fill="#f8f8f8" fill-opacity="1"></use><g><use xlink:href="#d1k47WxpZl" opacity="1" fill-opacity="0" stroke="#000000" stroke-width="1" stroke-opacity="0"></use></g></g><g><use xlink:href="#a2gvTnhVNX" opacity="1" fill="#f8f8f8" fill-opacity="1"></use><g><use xlink:href="#a2gvTnhVNX" opacity="1" fill-opacity="0" stroke="#000000" stroke-width="1" stroke-opacity="0"></use></g></g><g><use xlink:href="#g1fTIVhaml" opacity="1" fill="#f8f8f8" fill-opacity="1"></use><g><use xlink:href="#g1fTIVhaml" opacity="1" fill-opacity="0" stroke="#000000" stroke-width="1" stroke-opacity="0"></use></g></g><g><use xlink:href="#aIsGvO15I" opacity="1" fill="#f8f8f8" fill-opacity="1"></use><g><use xlink:href="#aIsGvO15I" opacity="1" fill-opacity="0" stroke="#000000" stroke-width="1" stroke-opacity="0"></use></g></g><g><use xlink:href="#g3LPEPki0d" opacity="1" fill="#f8f8f8" fill-opacity="1"></use><g><use xlink:href="#g3LPEPki0d" opacity="1" fill-opacity="0" stroke="#000000" stroke-width="1" stroke-opacity="0"></use></g></g><g><use xlink:href="#aQjdpTIEp" opacity="1" fill="#f8f8f8" fill-opacity="1"></use><g><use xlink:href="#aQjdpTIEp" opacity="1" fill-opacity="0" stroke="#000000" stroke-width="1" stroke-opacity="0"></use></g></g><g><use xlink:href="#dKGYlXD0f" opacity="1" fill="#f8f8f8" fill-opacity="1"></use><g><use xlink:href="#dKGYlXD0f" opacity="1" fill-opacity="0" stroke="#000000" stroke-width="1" stroke-opacity="0"></use></g></g><g><use xlink:href="#aJEjR2m0y" opacity="1" fill="#f8f8f8" fill-opacity="1"></use><g><use xlink:href="#aJEjR2m0y" opacity="1" fill-opacity="0" stroke="#000000" stroke-width="1" stroke-opacity="0"></use></g></g><g><use xlink:href="#au5iTMNZ8" opacity="1" fill="#f8f8f8" fill-opacity="1"></use><g><use xlink:href="#au5iTMNZ8" opacity="1" fill-opacity="0" stroke="#000000" stroke-width="1" stroke-opacity="0"></use></g></g><g><use xlink:href="#c4faU9h7Dg" opacity="1" fill="#f8f8f8" fill-opacity="1"></use><g><use xlink:href="#c4faU9h7Dg" opacity="1" fill-opacity="0" stroke="#000000" stroke-width="1" stroke-opacity="0"></use></g></g><g><use xlink:href="#g184UYLDOk" opacity="1" fill="#f8f8f8" fill-opacity="1"></use><g><use xlink:href="#g184UYLDOk" opacity="1" fill-opacity="0" stroke="#000000" stroke-width="1" stroke-opacity="0"></use></g></g><g><use xlink:href="#bhsgybRK" opacity="1" fill="#f8f8f8" fill-opacity="1"></use><g><use xlink:href="#bhsgybRK" opacity="1" fill-opacity="0" stroke="#000000" stroke-width="1" stroke-opacity="0"></use></g></g><g><use xlink:href="#b48hq9pEzt" opacity="1" fill="#f8f8f8" fill-opacity="1"></use><g><use xlink:href="#b48hq9pEzt" opacity="1" fill-opacity="0" stroke="#000000" stroke-width="1" stroke-opacity="0"></use></g></g><g><use xlink:href="#b6TY2GtlS" opacity="1" fill="#f8f8f8" fill-opacity="1"></use><g><use xlink:href="#b6TY2GtlS" opacity="1" fill-opacity="0" stroke="#000000" stroke-width="1" stroke-opacity="0"></use></g></g><g><use xlink:href="#dgOxS0T7Z" opacity="1" fill="#f8f8f8" fill-opacity="1"></use><g><use xlink:href="#dgOxS0T7Z" opacity="1" fill-opacity="0" stroke="#000000" stroke-width="1" stroke-opacity="0"></use></g></g><g><use xlink:href="#b9MuBPnyA" opacity="1" fill="#f8f8f8" fill-opacity="1"></use><g><use xlink:href="#b9MuBPnyA" opacity="1" fill-opacity="0" stroke="#000000" stroke-width="1" stroke-opacity="0"></use></g></g><g><use xlink:href="#er1EKilG9" opacity="1" fill="#f8f8f8" fill-opacity="1"></use><g><use xlink:href="#er1EKilG9" opacity="1" fill-opacity="0" stroke="#000000" stroke-width="1" stroke-opacity="0"></use></g></g></g></g></svg>